<?xml version="1.0" encoding="utf-8"?>

<!DOCTYPE svg PUBLIC "-//W3C//DTD SVG 1.0//EN"    "http://www.w3.org/TR/2001/REC-SVG-20010904/DTD/svg10.dtd" [
	]>
<svg  xmlns="&ns_svg;" xmlns:xlink="&ns_xlink;" 
	 width="127" height="127" viewBox="0 0 127 127" overflow="visible" enable-background="new 0 0 127 127" xml:space="preserve">
		<g id="Ebene_1">
			<circle fill="#86CFD5" cx="63.5" cy="63.5" r="63.5"/> 
			<circle fill="#FFFFFF" cx="63.5" cy="63.5" r="56.338"/> 
			<path fill="#86CFD5" d="M31.415,40.45c-1.864-1.469-2.185-4.17-0.716-6.035l0,0c1.469-1.864,4.17-2.185,6.035-0.716L63.36,54.679
				c1.864,1.469,2.185,4.17,0.716,6.035l0,0c-1.469,1.864-4.17,2.185-6.035,0.715L31.415,40.45z"/>
			<path fill="#86CFD5" d="M37.298,91.874c-1.025,1.025-2.688,1.025-3.714,0l0,0c-1.025-1.025-1.025-2.688,0-3.714l27.008-27.008
				c1.026-1.025,2.688-1.025,3.714,0l0,0c1.025,1.025,1.025,2.688,0,3.714L37.298,91.874z"/>
			<path fill="#86CFD5" d="M112.684,84.132c0.509-1.071,0.054-2.353-1.019-2.862L66.602,59.856c-1.072-0.51-2.354-0.054-2.863,1.018
				l0,0c-0.509,1.072-0.053,2.354,1.019,2.863l45.064,21.414C110.893,85.66,112.175,85.204,112.684,84.132L112.684,84.132z"/>
		</g>
	</svg>
